<?xml version="1.0" encoding="UTF-8" standalone="no"?>
<!-- Created with Inkscape (http://www.inkscape.org/) -->

<svg
   xmlns:dc="http://purl.org/dc/elements/1.1/"
   xmlns:cc="http://creativecommons.org/ns#"
   xmlns:rdf="http://www.w3.org/1999/02/22-rdf-syntax-ns#"
   xmlns:svg="http://www.w3.org/2000/svg"
   xmlns="http://www.w3.org/2000/svg"
   version="1.1"
   viewBox="0 0 300 175"
   id="svg2">
  <defs
     id="defs4" />
  <metadata
     id="metadata7">
    <rdf:RDF>
      <cc:Work
         rdf:about="">
        <dc:format>image/svg+xml</dc:format>
        <dc:type
           rdf:resource="http://purl.org/dc/dcmitype/StillImage" />
        <dc:title></dc:title>
      </cc:Work>
    </rdf:RDF>
  </metadata>
  <g
     transform="translate(-983.64813,-666.5209)"
     id="layer1">
    <g
       transform="translate(923.74878,600.00947)"
       id="Layer_5" />
    <g
       transform="translate(923.74878,600.00947)"
       id="Layer_4" />
    <g
       transform="translate(923.74878,600.00947)"
       id="Layer_2" />
    <g
       transform="translate(923.74878,600.00947)"
       id="Layer_6" />
    <g
       transform="matrix(0.93881143,0,0,0.93881143,1043.9823,612.97232)"
       id="g3020"
       style="fill:#961720;fill-opacity:1">
      <path
         d="m 215.208,228.977 c -4.299,-1.413 -9.037,-2.854 -13.695,-4.538 -6.279,-2.262 -12.722,-2.665 -19.153,-1.492 -7.557,1.377 -14.967,3.495 -22.522,4.862 -5.136,0.924 -10.431,1.728 -15.606,1.503 -9.973,-0.437 -17.979,-5.413 -24.688,-12.533 -3.91,-4.154 -6.792,-8.914 -8.055,-14.524 -1.729,-7.68 0.613,-13.523 7.395,-17.529 3.393,-2.008 7.071,-3.551 10.634,-5.275 2.141,-1.032 4.302,-2.021 6.463,-3.017 5.858,-2.701 9.364,-7.359 11.362,-13.321 0.729,-2.186 1.561,-4.34 2.438,-6.47 1.801,-4.377 4.99,-7.378 9.39,-9.153 10.659,-4.301 21.489,-5.859 32.715,-2.117 10.281,3.43 18.17,9.374 21.832,19.947 0.795,2.293 1.809,4.515 2.725,6.767 3.531,8.707 9.367,15.133 18.381,18.501 1.705,0.635 3.33,1.542 4.91,2.457 6.178,3.581 9.42,8.942 9.281,16.033 -0.037,1.926 -0.719,3.979 -1.605,5.721 -3.887,7.621 -9.203,13.715 -18.189,15.448 -4.62,0.891 -9.12,-0.072 -14.013,-1.27 z"
         id="path3022"
         style="fill:#961720;fill-opacity:1" />
      <path
         d="m 229.823,130.937 c -1.734,6.239 -4.416,11.662 -9.352,15.721 -7.455,6.126 -16.238,4.172 -20.434,-4.547 -2.766,-5.752 -3.027,-11.795 -1.936,-17.947 1.162,-6.533 3.742,-12.399 8.598,-17.067 3.314,-3.19 7.178,-5.25 12.021,-4.468 4.496,0.724 7.418,3.564 9.381,7.426 3.457,6.799 3.32,13.909 1.722,20.882 z"
         id="path3024"
         style="fill:#961720;fill-opacity:1" />
      <path
         d="m 193.675,121.085 c -1.369,4.649 -3.146,8.662 -6.569,11.745 -4.684,4.206 -10.764,4.398 -15.693,0.432 -3.756,-3.02 -6.008,-7.039 -7.281,-11.566 -2.391,-8.513 -1.975,-16.8 2.344,-24.68 0.086,-0.159 0.166,-0.323 0.262,-0.478 6.084,-9.838 16.988,-9.867 23.181,-0.015 4.877,7.769 5.49,16.175 3.756,24.562 z"
         id="path3026"
         style="fill:#961720;fill-opacity:1" />
      <path
         d="m 128.535,117.115 c 1.429,-5.112 2.725,-8.345 5.207,-10.996 4.031,-4.294 9.429,-4.949 14.393,-1.692 3.596,2.359 6.037,5.686 7.674,9.555 3.941,9.314 4.534,18.664 -0.037,27.95 -0.425,0.865 -0.98,1.674 -1.576,2.432 -4.539,5.758 -11.243,6.42 -16.807,1.582 -5.936,-5.159 -8.369,-12.022 -9.025,-19.521 -0.318,-3.643 0.122,-7.347 0.171,-9.31 z"
         id="path3028"
         style="fill:#961720;fill-opacity:1" />
      <path
         d="m 132.137,166.129 c -1.403,5.202 -4.012,9.402 -9.8,10.512 -3.816,0.732 -7.242,-0.545 -10.373,-2.648 -9.412,-6.332 -14.266,-20.729 -10.616,-31.402 2.939,-8.594 11.261,-11.638 18.902,-6.555 9.177,6.109 12.729,15.141 12.62,25.813 -0.007,0.724 -0.083,1.451 -0.208,2.167 -0.122,0.713 -0.346,1.409 -0.525,2.113 z"
         id="path3030"
         style="fill:#961720;fill-opacity:1" />
      <path
         d="m 254.358,165.966 c -1.701,6.339 -4.295,11.316 -9.264,14.739 -5.301,3.655 -11.453,2.788 -15.521,-2.215 -3.387,-4.167 -4.523,-9.089 -4.521,-14.307 -0.002,-7.014 1.867,-13.439 6.469,-18.849 1.277,-1.499 2.863,-2.861 4.564,-3.858 5.664,-3.332 12.059,-1.58 15.65,4.243 4.067,6.584 4.184,13.666 2.623,20.247 z"
         id="path3032"
         style="fill:#961720;fill-opacity:1" />
      <path
         d="m 183.906,86.461 c -4.801,-1.749 -8.9,-1.389 -13.047,0.872 -1.953,-10.507 1.258,-20.162 4.211,-29.927 4.116,9.273 8.375,18.461 8.836,29.055 z"
         id="path3034"
         style="fill:#961720;fill-opacity:1" />
      <path
         d="m 252.425,141.288 c -3.223,-2.608 -6.986,-3.688 -11.031,-3.882 1.637,-13.406 1.186,-13.683 -2.318,-28.782 7.814,3.586 16.23,24.034 13.349,32.664 z"
         id="path3036"
         style="fill:#961720;fill-opacity:1" />
      <path
         d="m 146.573,69.529 c -2.706,9.863 -4.699,19.378 -2.05,29.303 -4.344,-0.036 -7.998,1.29 -11.273,3.797 -1.788,-10.176 2.806,-24.65 13.323,-33.1 z"
         id="path3038"
         style="fill:#961720;fill-opacity:1" />
      <path
         d="m 208.88,71.726 c 11.102,6.493 17.723,20.175 17.541,31.079 -3.643,-2.127 -7.492,-2.986 -11.746,-2.417 1.289,-10.241 -1.983,-19.41 -5.795,-28.662 z"
         id="path3040"
         style="fill:#961720;fill-opacity:1" />
      <path
         d="m 115.501,130.031 c -4.353,-0.038 -8.033,1.196 -11.34,3.66 -1.587,-10.133 3.147,-24.546 13.675,-32.763 -2.624,9.677 -4.798,19.075 -2.335,29.103 z"
         id="path3042"
         style="fill:#961720;fill-opacity:1" />
    </g>
    <text
       x="981.88037"
       y="788.48792"
       id="text4419"
       xml:space="preserve"
       style="font-size:40px;font-style:normal;font-weight:normal;line-height:125%;letter-spacing:0px;word-spacing:0px;fill:#961720;fill-opacity:1;stroke:none;font-family:Sans"><tspan
         x="981.88037"
         y="788.48792"
         id="tspan4421"
         style="font-size:105px;font-style:normal;font-variant:normal;font-weight:normal;font-stretch:normal;fill:#961720;fill-opacity:1;font-family:Impact;-inkscape-font-specification:Impact">IHS</tspan></text>
    <text
       x="1041.7257"
       y="838.31873"
       id="text4109"
       xml:space="preserve"
       style="font-size:41.48789978px;font-style:normal;font-weight:normal;line-height:125%;letter-spacing:0px;word-spacing:0px;fill:#000000;fill-opacity:1;stroke:none;font-family:Sans"><tspan
         x="1041.7257"
         y="838.31873"
         id="tspan4111"
         style="font-size:82.97579956px;font-style:normal;font-variant:normal;font-weight:normal;font-stretch:normal;font-family:Impact;-inkscape-font-specification:Impact">Tech<tspan
   id="tspan4118"
   style="font-size:25.92993736px">dept.</tspan></tspan></text>
  </g>
</svg>
